<svg width="336" height="140" viewBox="0 0 336 140" fill="none" xmlns="http://www.w3.org/2000/svg">
<g clip-path="url(#clip0_2867_16013)">
<rect width="336" height="140" rx="4" fill="#121214"/>
<path fill-rule="evenodd" clip-rule="evenodd" d="M90.3464 -4.29304L64.7128 10.5065V39.9634L90.2661 54.7167L115.755 40.0006V10.3767L90.3464 -4.29304ZM115.755 129.623V99.9994L90.2661 85.2833L64.7128 100.037V129.493L90.3464 144.293L115.755 129.623ZM142.114 85.3947L116.592 100.13V129.623L142.001 144.293L167.409 129.624V99.9988L142.114 85.3947ZM142.001 145L167.828 130.089L193.655 145L219.482 130.089L245.309 145L271.555 129.847V100.129L297.494 85.153V54.8469L271.555 39.8709V10.1531L245.309 -5L219.482 9.9114L193.655 -5L167.828 9.91114L142.001 -5L116.174 9.9114L90.3464 -5L64.1005 10.1531V39.7778L38 54.8469V85.153L64.1005 100.222V129.847L90.3464 145L116.174 130.089L142.001 145ZM219.901 129.623V100.13L245.422 85.395L270.943 100.13V129.493L245.309 144.293L219.901 129.623ZM271.452 99.4814L296.882 84.7996V55.2004L271.452 40.5185L245.841 55.3055V84.6944L271.452 99.4814ZM245.003 84.5648V55.4351L219.482 40.7008L194.187 55.305V84.6949L219.482 99.2991L245.003 84.5648ZM219.063 99.9994L193.768 85.3949L168.247 100.13V129.624L193.655 144.293L219.063 129.623V99.9994ZM193.349 55.4357V84.5643L167.828 99.2989L142.532 84.6944V55.3055L167.828 40.7011L193.349 55.4357ZM141.695 84.5643V55.4357L116.174 40.7008L90.6528 55.4354V84.5646L116.174 99.2991L141.695 84.5643ZM89.8795 55.3427V84.6573L64.1227 99.528L38.6122 84.7996V55.2004L64.1227 40.472L89.8795 55.3427ZM142.114 54.6052L167.409 40.0011V10.3762L142.001 -4.29304L116.592 10.3767V39.8704L142.114 54.6052ZM219.063 40.0006L193.768 54.605L168.247 39.8704V10.3762L193.655 -4.29304L219.063 10.3767V40.0006ZM245.422 54.605L270.943 39.8702V10.5065L245.309 -4.29304L219.901 10.3767V39.8704L245.422 54.605Z" fill="url(#paint0_radial_2867_16013)" fill-opacity="0.45"/>
<g filter="url(#filter0_f_2867_16013)">
<circle cx="168" cy="70" r="26" fill="#A075DA"/>
</g>
<mask id="path-4-inside-1_2867_16013" fill="white">
<path d="M201.806 93.711C195.981 102.255 184.591 106.588 167.958 106.588L167.93 106.588C151.321 106.583 139.959 102.249 134.159 93.7058C129.304 86.5539 128.682 77.4373 128.682 70.2938C128.682 63.1507 129.304 54.0344 134.159 46.8828C139.959 38.34 151.321 34.0057 167.93 34L167.963 34C184.596 33.9997 195.981 38.3316 201.806 46.8757C206.692 54.0429 207.318 63.1556 207.318 70.2938C207.318 77.4319 206.692 86.5442 201.806 93.711Z"/>
</mask>
<path d="M201.806 93.711C195.981 102.255 184.591 106.588 167.958 106.588L167.93 106.588C151.321 106.583 139.959 102.249 134.159 93.7058C129.304 86.5539 128.682 77.4373 128.682 70.2938C128.682 63.1507 129.304 54.0344 134.159 46.8828C139.959 38.34 151.321 34.0057 167.93 34L167.963 34C184.596 33.9997 195.981 38.3316 201.806 46.8757C206.692 54.0429 207.318 63.1556 207.318 70.2938C207.318 77.4319 206.692 86.5442 201.806 93.711Z" fill="url(#paint1_linear_2867_16013)" stroke="#A075DA" stroke-width="4" mask="url(#path-4-inside-1_2867_16013)"/>
<path d="M148.228 69.0039C148.114 50.1349 173.485 41.8031 184.427 59.3358L176.031 64.1751C170.963 55.8249 158.379 58.8107 157.927 69.0038C158.063 78.3981 170.431 82.7621 176.032 73.832L184.427 78.6712C174.785 95.3454 148.714 89.3463 148.228 69.0039Z" fill="#A075DA"/>
<path d="M180.228 63.526H181.827L180.734 74.0379H179.105L180.228 63.526Z" fill="#A075DA"/>
<path d="M183.654 63.5261H185.253L184.16 74.038H182.531L183.654 63.5261Z" fill="#A075DA"/>
<path d="M186.431 66.0219H178.437V67.56H186.431V66.0219Z" fill="#A075DA"/>
<path d="M185.984 69.7682H177.989V71.3063H185.984V69.7682Z" fill="#A075DA"/>
</g>
<defs>
<filter id="filter0_f_2867_16013" x="52" y="-46" width="232" height="232" filterUnits="userSpaceOnUse" color-interpolation-filters="sRGB">
<feFlood flood-opacity="0" result="BackgroundImageFix"/>
<feBlend mode="normal" in="SourceGraphic" in2="BackgroundImageFix" result="shape"/>
<feGaussianBlur stdDeviation="45" result="effect1_foregroundBlur_2867_16013"/>
</filter>
<radialGradient id="paint0_radial_2867_16013" cx="0" cy="0" r="1" gradientUnits="userSpaceOnUse" gradientTransform="translate(167.747 70) rotate(66.7305) scale(81.641 141.236)">
<stop stop-color="#866CA9"/>
<stop offset="1" stop-color="#654A89" stop-opacity="0"/>
</radialGradient>
<linearGradient id="paint1_linear_2867_16013" x1="128.7" y1="34.1971" x2="200.985" y2="112.533" gradientUnits="userSpaceOnUse">
<stop stop-color="#73549D"/>
<stop offset="1" stop-color="#131214"/>
</linearGradient>
<clipPath id="clip0_2867_16013">
<rect width="336" height="140" rx="4" fill="white"/>
</clipPath>
</defs>
</svg>
