<svg width="338" height="140" viewBox="0 0 338 140" fill="none" xmlns="http://www.w3.org/2000/svg">
<g clip-path="url(#clip0_3200_46067)">
<rect width="338" height="140" rx="4" fill="#121214"/>
<mask id="mask0_3200_46067" style="mask-type:alpha" maskUnits="userSpaceOnUse" x="-9" y="15" width="356" height="110">
<path d="M23.2705 43.1016H64.6465C65.0475 43.1016 65.4095 42.8622 65.5664 42.4932L69.9639 32.1455C70.1641 31.6742 69.9762 31.128 69.5283 30.8799L44.4434 16.9814C44.1796 16.8354 43.866 16.8171 43.5898 16.9268L43.4746 16.9814L18.3887 30.8799C17.9688 31.1126 17.777 31.6074 17.9199 32.0566L17.9531 32.1455L22.3506 42.4932C22.5075 42.8622 22.8695 43.1014 23.2705 43.1016ZM273.354 43.1016H314.729C315.13 43.1014 315.493 42.8622 315.649 42.4932L320.047 32.1455C320.235 31.7038 320.081 31.196 319.692 30.9297L319.611 30.8799L294.526 16.9814C294.263 16.8353 293.949 16.8172 293.673 16.9268L293.557 16.9814L268.472 30.8799L268.391 30.9297C268.002 31.1959 267.847 31.7037 268.035 32.1455L272.434 42.4932C272.591 42.8622 272.952 43.1016 273.354 43.1016ZM215.736 84.7021C216.18 85.6309 217.569 85.3632 217.637 84.3359L220.87 35.04C220.894 34.6756 220.717 34.3317 220.418 34.1367L220.282 34.0625L186.136 18.7197C185.339 18.3619 184.53 19.1171 184.763 19.9053L184.824 20.0635L215.736 84.7021ZM120.329 84.333C120.396 85.36 121.784 85.6282 122.229 84.7002L153.173 20.0654C153.55 19.2777 152.814 18.4501 152.021 18.6641L151.861 18.7207L117.717 34.0625L117.581 34.1367C117.282 34.3316 117.105 34.6757 117.129 35.04L120.329 84.333ZM157.541 77.7715H180.459C181.175 77.7715 181.659 77.0412 181.38 76.3818L169.921 49.3311C169.598 48.5689 168.565 48.5215 168.153 49.1885L168.079 49.3311L156.62 76.3818L156.576 76.5059C156.402 77.1294 156.87 77.7715 157.541 77.7715ZM59.7217 120.095C59.4888 120.883 60.2983 121.638 61.0947 121.28L95.2402 105.938C95.6211 105.766 95.8554 105.377 95.8281 104.96L92.5957 55.6641C92.5283 54.6368 91.1395 54.3691 90.6953 55.2979L59.7822 119.937L59.7217 120.095ZM309.805 120.095C309.572 120.883 310.38 121.638 311.177 121.28L345.323 105.938C345.704 105.766 345.938 105.377 345.911 104.96L342.678 55.6641C342.61 54.6368 341.222 54.3691 340.778 55.2979L309.865 119.937L309.805 120.095ZM26.8193 121.279C27.616 121.637 28.4257 120.881 28.1924 120.093L28.1318 119.935L-2.8125 55.2998C-3.25723 54.3716 -4.64505 54.6398 -4.71191 55.667L-7.91211 104.96L-7.91016 105.114C-7.87831 105.47 -7.65741 105.788 -7.32422 105.938L26.8193 121.279ZM276.902 121.279C277.699 121.637 278.509 120.881 278.275 120.093L278.214 119.935L247.271 55.2998C246.84 54.4003 245.523 54.6243 245.381 55.5732L245.37 55.667L242.171 104.96L242.172 105.114C242.199 105.42 242.366 105.696 242.623 105.863L242.759 105.938L276.902 121.279ZM43.0381 90.6689C43.3827 91.4817 44.5353 91.4818 44.8799 90.6689L56.3389 63.6182C56.618 62.9588 56.134 62.2285 55.418 62.2285H32.499C31.8278 62.2287 31.3608 62.8706 31.5352 63.4941L31.5781 63.6182L43.0381 90.6689ZM293.121 90.6689C293.466 91.4815 294.617 91.4815 294.962 90.6689L306.422 63.6182C306.701 62.959 306.217 62.2287 305.501 62.2285H282.582C281.911 62.2285 281.443 62.8706 281.617 63.4941L281.661 63.6182L293.121 90.6689ZM168.516 123.018C168.817 123.185 169.183 123.185 169.484 123.018L194.57 109.12C194.99 108.887 195.182 108.393 195.039 107.943L195.006 107.854L190.608 97.5068C190.452 97.1377 190.089 96.8975 189.688 96.8975H148.312C147.911 96.8975 147.548 97.1377 147.392 97.5068L142.994 107.854L142.961 107.943C142.828 108.363 142.986 108.822 143.35 109.07L143.43 109.12L168.516 123.018Z" stroke="#E1E1E6" stroke-width="2"/>
</mask>
<g mask="url(#mask0_3200_46067)">
<rect x="-9" y="15.5703" width="356" height="108.86" fill="url(#paint0_radial_3200_46067)" fill-opacity="0.4"/>
</g>
<g opacity="0.8" filter="url(#filter0_f_3200_46067)">
<circle cx="169" cy="70" r="26" fill="#F656CB"/>
</g>
<g clip-path="url(#clip1_3200_46067)">
<mask id="mask1_3200_46067" style="mask-type:luminance" maskUnits="userSpaceOnUse" x="-2" y="-28" width="342" height="197">
<path d="M-2 -22.3391C-2 -25.4655 0.530885 -28 3.65289 -28H334.347C337.469 -28 340 -25.4655 340 -22.3391V163.339C340 166.466 337.469 169 334.347 169H3.65289C0.530879 169 -2 166.466 -2 163.339V-22.3391Z" fill="white"/>
</mask>
<g mask="url(#mask1_3200_46067)">
<path d="M-2 -22.3391C-2 -25.4655 0.530885 -28 3.65289 -28H334.347C337.469 -28 340 -25.4655 340 -22.3391V163.339C340 166.466 337.469 169 334.347 169H3.65289C0.530879 169 -2 166.466 -2 163.339V-22.3391Z" fill="#202024"/>
<g opacity="0.6" filter="url(#filter1_f_3200_46067)">
<path d="M169.283 124.279C198.942 124.279 222.985 100.202 222.985 70.5004C222.985 40.7992 198.942 16.7217 169.283 16.7217C139.623 16.7217 115.58 40.7992 115.58 70.5004C115.58 100.202 139.623 124.279 169.283 124.279Z" fill="#F95363"/>
</g>
<path d="M-81.7051 63.5769L13.0206 -31.9624V63.5769H-81.7051Z" stroke="url(#paint1_radial_3200_46067)" stroke-opacity="0.35"/>
<path d="M65.5684 63.5769L160.294 -31.9624V63.5769H65.5684Z" stroke="url(#paint2_radial_3200_46067)" stroke-opacity="0.35"/>
<path d="M212.844 63.5769L307.569 -31.9624V63.5769H212.844Z" stroke="url(#paint3_radial_3200_46067)" stroke-opacity="0.35"/>
<path d="M125.724 -31.9624L30.998 63.5769V-31.9624H125.724Z" stroke="url(#paint4_radial_3200_46067)" stroke-opacity="0.35"/>
<path d="M272.997 -31.9624L178.271 63.5769V-31.9624H272.997Z" stroke="url(#paint5_radial_3200_46067)" stroke-opacity="0.35"/>
<path d="M420.272 -31.9624L325.547 63.5769V-31.9624H420.272Z" stroke="url(#paint6_radial_3200_46067)" stroke-opacity="0.35"/>
<path d="M-81.7051 172.963L13.0206 77.4233V172.963H-81.7051Z" stroke="url(#paint7_radial_3200_46067)" stroke-opacity="0.35"/>
<path d="M65.5684 172.963L160.294 77.4233V172.963H65.5684Z" stroke="url(#paint8_radial_3200_46067)" stroke-opacity="0.35"/>
<path d="M212.844 172.963L307.569 77.4233V172.963H212.844Z" stroke="url(#paint9_radial_3200_46067)" stroke-opacity="0.35"/>
<path d="M125.724 77.4233L30.998 172.963V77.4233H125.724Z" stroke="url(#paint10_radial_3200_46067)" stroke-opacity="0.35"/>
<path d="M272.997 77.4233L178.271 172.963V77.4233H272.997Z" stroke="url(#paint11_radial_3200_46067)" stroke-opacity="0.35"/>
<path d="M420.272 77.4233L325.547 172.963V77.4233H420.272Z" stroke="url(#paint12_radial_3200_46067)" stroke-opacity="0.35"/>
<path d="M169.223 40.1885H169.251C183.501 40.1885 192.975 43.8528 197.769 50.7885C201.828 56.6606 202.378 64.1834 202.378 70.2429C202.378 76.3017 201.828 83.8251 197.77 89.6972C192.975 96.6329 183.497 100.298 169.247 100.298H169.223C155.216 100.294 145.837 96.7416 140.995 90.017L140.768 89.6938C136.735 83.8342 136.188 76.3074 136.188 70.2429C136.188 64.1783 136.735 56.6521 140.768 50.7931C145.466 43.9677 154.7 40.3091 168.56 40.1919L169.223 40.1885Z" fill="url(#paint13_linear_3200_46067)" stroke="#F95363" stroke-width="2.90909"/>
<path fill-rule="evenodd" clip-rule="evenodd" d="M161.985 80.8437L180.316 83.3498C178.219 79.8542 176.177 76.448 174.118 73.0141L161.985 80.8437ZM182.05 61.4958C181.508 62.3099 180.966 63.1239 180.425 63.9385C178.568 66.7367 176.711 69.5355 174.855 72.3342C174.752 72.4905 174.618 72.6139 174.763 72.8545C176.556 75.8191 178.335 78.7928 180.118 81.7636C180.4 82.2329 180.684 82.7005 181.048 83.1505L182.13 61.5185L182.05 61.4958ZM157.574 70.7401C157.659 70.8194 157.868 70.8658 157.966 70.8177C159.685 69.9714 161.416 69.1437 163.098 68.2278C163.647 67.9289 164.069 67.3934 164.541 66.9597C166.106 65.5224 167.669 64.0823 169.231 62.6416C169.326 62.5533 169.439 62.4678 169.496 62.3563C170.057 61.2581 170.608 60.1547 171.179 59.0192C170.499 58.7627 169.853 58.5125 169.2 58.2844C169.111 58.2532 168.972 58.3149 168.876 58.3682C167.364 59.2145 165.823 60.0155 164.359 60.9377C163.626 61.3996 163.03 62.0795 162.381 62.6722C161.336 63.6277 160.292 64.5855 159.261 65.5575C158.987 65.8185 158.74 66.1078 158.526 66.4208C157.822 67.4483 157.138 68.4905 156.424 69.5621C156.823 69.9759 157.186 70.371 157.574 70.7401ZM163.86 69.3351L161.275 80.2708L173.42 72.4344L163.86 69.3351ZM181 61.5304L170.677 63.2575L174.18 71.7902C176.466 68.3501 178.707 64.979 181 61.5304ZM164.004 68.5952L173.373 71.6413C172.199 68.7763 171.065 66.0121 169.908 63.189L164.004 68.5952ZM157.705 72.8505L154.425 80.7005L160.671 80.5159L157.705 72.8505ZM160.745 78.6954L160.822 78.6784C161.572 75.5559 162.333 72.4548 163.098 69.2105L158.087 71.8185C158.941 74.0415 159.852 76.3869 160.745 78.6954ZM179.739 61.0243C178.742 60.7593 177.745 60.4944 176.747 60.2312C175.313 59.8536 173.878 59.4811 172.444 59.1001C172.265 59.052 172.136 59.0209 172.031 59.2371C171.524 60.2765 171.002 61.3079 170.487 62.3433C170.471 62.3755 170.474 62.4169 170.462 62.4972L179.738 61.0894L179.739 61.0243ZM173.954 58.6603L182.082 60.9122L180.739 57.0797L173.966 58.5838L173.954 58.6603ZM161.434 81.4432C160.427 81.3272 159.394 81.4341 158.372 81.4517C157.534 81.4658 156.695 81.4975 155.856 81.5242C155.77 81.5264 155.684 81.544 155.598 81.6374C162.532 82.2793 169.466 82.9213 176.4 83.5632L176.414 83.4709L169.745 82.559C166.975 82.1803 164.21 81.7636 161.434 81.4432ZM154.562 78.3048C155.456 76.2284 156.345 74.1508 157.242 72.0761C157.332 71.8678 157.325 71.7268 157.149 71.5592C156.774 71.2015 156.426 70.816 156.015 70.3886C155.461 73.1301 154.92 75.8038 154.379 78.4769L154.439 78.5058C154.481 78.439 154.532 78.3761 154.562 78.3048ZM172.173 58.1123C173.68 57.7228 175.209 57.4183 176.729 57.0786C176.827 57.0565 176.923 57.0243 177.02 56.9965L177.005 56.9224L170.476 57.8021C171.088 58.0698 171.561 58.2702 172.173 58.1123Z" fill="#F95363"/>
</g>
<path d="M3.65345 -27.7168H334.348C337.314 -27.7168 339.718 -25.309 339.718 -22.3389V163.339C339.718 166.31 337.314 168.717 334.348 168.717H3.65345C0.687548 168.717 -1.7168 166.31 -1.7168 163.339V-22.3389C-1.7168 -25.309 0.687548 -27.7168 3.65345 -27.7168Z" stroke="url(#paint14_linear_3200_46067)"/>
</g>
</g>
<defs>
<filter id="filter0_f_3200_46067" x="63" y="-36" width="212" height="212" filterUnits="userSpaceOnUse" color-interpolation-filters="sRGB">
<feFlood flood-opacity="0" result="BackgroundImageFix"/>
<feBlend mode="normal" in="SourceGraphic" in2="BackgroundImageFix" result="shape"/>
<feGaussianBlur stdDeviation="40" result="effect1_foregroundBlur_3200_46067"/>
</filter>
<filter id="filter1_f_3200_46067" x="-84.4199" y="-183.278" width="507.404" height="507.558" filterUnits="userSpaceOnUse" color-interpolation-filters="sRGB">
<feFlood flood-opacity="0" result="BackgroundImageFix"/>
<feBlend mode="normal" in="SourceGraphic" in2="BackgroundImageFix" result="shape"/>
<feGaussianBlur stdDeviation="100" result="effect1_foregroundBlur_3200_46067"/>
</filter>
<radialGradient id="paint0_radial_3200_46067" cx="0" cy="0" r="1" gradientUnits="userSpaceOnUse" gradientTransform="translate(169 70) rotate(90) scale(54 207.175)">
<stop stop-color="#FF53AD"/>
<stop offset="1" stop-color="#FF53AD" stop-opacity="0"/>
</radialGradient>
<radialGradient id="paint1_radial_3200_46067" cx="0" cy="0" r="1" gradientTransform="matrix(0.62733 95.5388 -274.554 1.36952 169.283 76.9531)" gradientUnits="userSpaceOnUse">
<stop stop-color="#F95363"/>
<stop offset="1" stop-color="#F95363" stop-opacity="0"/>
</radialGradient>
<radialGradient id="paint2_radial_3200_46067" cx="0" cy="0" r="1" gradientTransform="matrix(0.62733 95.5388 -274.554 1.36952 169.283 76.9531)" gradientUnits="userSpaceOnUse">
<stop stop-color="#F95363"/>
<stop offset="1" stop-color="#F95363" stop-opacity="0"/>
</radialGradient>
<radialGradient id="paint3_radial_3200_46067" cx="0" cy="0" r="1" gradientTransform="matrix(0.62733 95.5388 -274.554 1.36952 169.284 76.9531)" gradientUnits="userSpaceOnUse">
<stop stop-color="#F95363"/>
<stop offset="1" stop-color="#F95363" stop-opacity="0"/>
</radialGradient>
<radialGradient id="paint4_radial_3200_46067" cx="0" cy="0" r="1" gradientTransform="matrix(0.62733 95.5388 -274.554 1.36952 169.284 76.9531)" gradientUnits="userSpaceOnUse">
<stop stop-color="#F95363"/>
<stop offset="1" stop-color="#F95363" stop-opacity="0"/>
</radialGradient>
<radialGradient id="paint5_radial_3200_46067" cx="0" cy="0" r="1" gradientTransform="matrix(0.62733 95.5388 -274.554 1.36952 169.283 76.9531)" gradientUnits="userSpaceOnUse">
<stop stop-color="#F95363"/>
<stop offset="1" stop-color="#F95363" stop-opacity="0"/>
</radialGradient>
<radialGradient id="paint6_radial_3200_46067" cx="0" cy="0" r="1" gradientTransform="matrix(0.62733 95.5388 -274.554 1.36952 169.284 76.9531)" gradientUnits="userSpaceOnUse">
<stop stop-color="#F95363"/>
<stop offset="1" stop-color="#F95363" stop-opacity="0"/>
</radialGradient>
<radialGradient id="paint7_radial_3200_46067" cx="0" cy="0" r="1" gradientTransform="matrix(0.62733 95.5388 -274.554 1.36952 169.283 76.9529)" gradientUnits="userSpaceOnUse">
<stop stop-color="#F95363"/>
<stop offset="1" stop-color="#F95363" stop-opacity="0"/>
</radialGradient>
<radialGradient id="paint8_radial_3200_46067" cx="0" cy="0" r="1" gradientTransform="matrix(0.62733 95.5388 -274.554 1.36952 169.283 76.9529)" gradientUnits="userSpaceOnUse">
<stop stop-color="#F95363"/>
<stop offset="1" stop-color="#F95363" stop-opacity="0"/>
</radialGradient>
<radialGradient id="paint9_radial_3200_46067" cx="0" cy="0" r="1" gradientTransform="matrix(0.62733 95.5388 -274.554 1.36952 169.284 76.9529)" gradientUnits="userSpaceOnUse">
<stop stop-color="#F95363"/>
<stop offset="1" stop-color="#F95363" stop-opacity="0"/>
</radialGradient>
<radialGradient id="paint10_radial_3200_46067" cx="0" cy="0" r="1" gradientTransform="matrix(0.62733 95.5388 -274.554 1.36952 169.284 76.9529)" gradientUnits="userSpaceOnUse">
<stop stop-color="#F95363"/>
<stop offset="1" stop-color="#F95363" stop-opacity="0"/>
</radialGradient>
<radialGradient id="paint11_radial_3200_46067" cx="0" cy="0" r="1" gradientTransform="matrix(0.62733 95.5388 -274.554 1.36952 169.283 76.9529)" gradientUnits="userSpaceOnUse">
<stop stop-color="#F95363"/>
<stop offset="1" stop-color="#F95363" stop-opacity="0"/>
</radialGradient>
<radialGradient id="paint12_radial_3200_46067" cx="0" cy="0" r="1" gradientTransform="matrix(0.62733 95.5388 -274.554 1.36952 169.284 76.9529)" gradientUnits="userSpaceOnUse">
<stop stop-color="#F95363"/>
<stop offset="1" stop-color="#F95363" stop-opacity="0"/>
</radialGradient>
<linearGradient id="paint13_linear_3200_46067" x1="76.0859" y1="-24.1168" x2="194.475" y2="116.932" gradientUnits="userSpaceOnUse">
<stop stop-color="#F95363"/>
<stop offset="1" stop-color="#0E1207"/>
</linearGradient>
<linearGradient id="paint14_linear_3200_46067" x1="169.001" y1="-27.9998" x2="169.001" y2="169" gradientUnits="userSpaceOnUse">
<stop stop-color="#323238"/>
<stop offset="1" stop-color="#323238" stop-opacity="0.3"/>
</linearGradient>
<clipPath id="clip0_3200_46067">
<rect width="338" height="140" rx="4" fill="white"/>
</clipPath>
<clipPath id="clip1_3200_46067">
<rect width="340" height="197" fill="white" transform="translate(-2 -28)"/>
</clipPath>
</defs>
</svg>
